<svg width="28" height="36" viewBox="0 0 28 36" fill="none" xmlns="http://www.w3.org/2000/svg">
<g clip-path="url(#clip0_4793_45942)">
<path d="M28 14.3438C28 17.1324 27.2233 19.7353 25.8793 21.9375C20.1992 31.2453 14 36 14 36C14 36 7.80082 31.2453 2.12068 21.9375C0.776749 19.7353 0 17.1324 0 14.3438C0 6.42192 6.26801 0 14 0C21.732 0 28 6.42192 28 14.3438Z" fill="#4B3C87"/>
<rect x="3" y="3" width="22" height="22" rx="11" fill="white"/>
<path fill-rule="evenodd" clip-rule="evenodd" d="M21.2328 16.4252L18.4828 19.6335C18.4785 19.639 18.4728 19.6427 18.4684 19.6479C18.4544 19.6637 18.4398 19.6782 18.424 19.6919C18.4148 19.7 18.4059 19.7077 18.396 19.7151C18.379 19.7274 18.3609 19.7382 18.3422 19.7483C18.3328 19.7536 18.3236 19.7595 18.3137 19.7639C18.292 19.7737 18.2691 19.7811 18.2457 19.7875C18.2379 19.7895 18.2303 19.793 18.2223 19.7946C18.1909 19.8015 18.1584 19.8056 18.1249 19.8056H7.12494C6.87176 19.8056 6.66669 19.6003 6.66669 19.3473V11.0974C6.66669 11.0681 6.66989 11.0397 6.67516 11.012L6.67562 11.0071C6.68364 10.9673 6.69808 10.9304 6.71572 10.8951C6.71984 10.8866 6.7242 10.8788 6.72878 10.8706C6.74917 10.8353 6.77232 10.8018 6.80096 10.7732L9.55088 8.02342C9.6368 7.93726 9.75343 7.88892 9.87487 7.88892H20.8749C20.8822 7.88892 20.8888 7.89189 20.8962 7.89212C20.9189 7.89327 20.9409 7.89785 20.9633 7.90221C20.986 7.90679 21.0082 7.91114 21.0298 7.9187C21.0364 7.92122 21.0435 7.92122 21.0502 7.92397C21.0639 7.92947 21.0744 7.93933 21.087 7.9462C21.1081 7.9572 21.1283 7.9682 21.1473 7.98218C21.1649 7.99547 21.1803 8.01059 21.1959 8.02617C21.2117 8.04175 21.2268 8.05733 21.2401 8.07521C21.2541 8.09399 21.2651 8.11416 21.2761 8.13501C21.2829 8.14784 21.2928 8.15838 21.2983 8.1719C21.301 8.17878 21.301 8.18588 21.3036 8.19275C21.3114 8.21406 21.3155 8.23629 21.3201 8.25897C21.3244 8.28143 21.329 8.30343 21.3301 8.32611C21.3304 8.33321 21.3334 8.34009 21.3334 8.34742V16.1388C21.3334 16.2431 21.2978 16.3439 21.2328 16.4252ZM7.5832 16.1389H9.41669V14.3056H7.5832V16.1389ZM10.3332 13.389H12.1667V11.5557H10.3332V13.389ZM10.3332 14.3056V16.1389H12.1667V14.3056H10.3332ZM13.0832 13.389H14.9167V11.5557H13.0832V13.389ZM13.0832 14.3056V16.1389H14.9167V14.3056H13.0832ZM15.8332 13.389H17.6667V11.5557H15.8332V13.389ZM15.8332 14.3056V16.1389H17.6667V14.3056H15.8332ZM17.6667 18.8888V17.0555H15.8332V18.8888H17.6667ZM14.9167 18.8888V17.0555H13.0832V18.8888H14.9167ZM12.1667 18.8888V17.0555H10.3332V18.8888H12.1667ZM9.41669 18.8888V17.0555H7.5832V18.8888H9.41669ZM7.5832 13.389H9.41669V11.5557H7.5832V13.389ZM10.0648 8.8057L8.23141 10.6389H17.935L19.7684 8.8057H10.0648ZM20.4166 9.45393L18.5832 11.2871V18.0405L20.4166 15.9782V9.45393Z" fill="#4B3C87"/>
</g>
<defs>
<clipPath id="clip0_4793_45942">
<rect width="28" height="36" fill="white"/>
</clipPath>
</defs>
</svg>
