<svg width="15" height="11" viewBox="0 0 15 11" fill="none" xmlns="http://www.w3.org/2000/svg">
<path d="M5.48078 11C5.35256 10.9996 5.22579 10.9734 5.10836 10.9232C4.99093 10.8729 4.88533 10.7996 4.79815 10.7077L0.253475 5.98583C0.0835893 5.809 -0.00741802 5.5735 0.000473558 5.33113C0.00438107 5.21113 0.0324514 5.09305 0.0830816 4.98364C0.133712 4.87422 0.20591 4.77562 0.295555 4.69346C0.3852 4.61131 0.490536 4.5472 0.605548 4.5048C0.72056 4.4624 0.842996 4.44254 0.965866 4.44636C1.21401 4.45407 1.44886 4.55774 1.61875 4.73456L5.47143 8.74408L13.3358 0.341453C13.4156 0.244387 13.5149 0.164281 13.6275 0.106055C13.7402 0.0478291 13.8638 0.0127129 13.9909 0.00286323C14.118 -0.00698643 14.2457 0.00863849 14.3664 0.0487781C14.487 0.0889177 14.598 0.152724 14.6925 0.23628C14.787 0.319835 14.863 0.421374 14.9158 0.534661C14.9687 0.647948 14.9973 0.770591 14.9998 0.895057C15.0024 1.01952 14.9788 1.14318 14.9307 1.25845C14.8825 1.37371 14.8107 1.47813 14.7197 1.56531L6.17277 10.6986C6.0864 10.7921 5.98118 10.8671 5.8637 10.919C5.74623 10.9709 5.61904 10.9984 5.49013 11H5.48078Z" fill="#F1551C"/>
</svg>
