<svg width="206" height="40" viewBox="0 0 206 40" fill="none" xmlns="http://www.w3.org/2000/svg">
<path d="M126.298 0.128876H125.558V9.20887H126.298V0.128876Z" fill="black"/>
<path d="M135.423 9.20887H134.683L129.572 1.43999L129.532 1.44888V9.20887H128.792V0.128876H129.532L134.647 7.88443L134.683 7.87554V0.128876H135.423V9.20887Z" fill="black"/>
<path d="M143.847 0.768876H140.78V9.20887H140.044V0.768876H136.872V0.128876H143.847V0.768876Z" fill="black"/>
<path d="M150.072 4.81332H146.037V8.58221H150.702V9.21332H145.292V0.128876H150.672V0.768876H146.037V4.17776H150.072V4.81332Z" fill="black"/>
<path d="M153.015 8.58221H157.663V9.20887H152.275V0.128876H153.015V8.58221Z" fill="black"/>
<path d="M159.99 8.58221H164.638V9.20887H159.245V0.128876H159.99V8.58221Z" fill="black"/>
<path d="M167.154 0.128876H166.414V9.20887H167.154V0.128876Z" fill="black"/>
<path d="M176.044 7.98667C175.846 8.31556 175.48 8.62222 174.947 8.91111C174.414 9.19556 173.74 9.34222 172.929 9.34222C171.894 9.34222 171.048 8.98222 170.387 8.26222C169.726 7.54222 169.396 6.61333 169.396 5.46667V3.80445C169.396 2.68 169.718 1.76889 170.352 1.05778C170.991 0.351111 171.819 0 172.833 0C173.811 0 174.586 0.257778 175.163 0.777778C175.74 1.29778 176.014 1.96 176 2.76L175.983 2.79556H175.3C175.3 2.16889 175.084 1.64889 174.657 1.24C174.229 0.835556 173.621 0.631111 172.833 0.631111C172.026 0.631111 171.374 0.924445 170.881 1.51556C170.387 2.10667 170.141 2.86222 170.141 3.78667V5.46222C170.141 6.41333 170.396 7.18667 170.912 7.79556C171.427 8.40445 172.101 8.70667 172.929 8.70667C173.56 8.70667 174.075 8.61333 174.476 8.42222C174.877 8.23111 175.154 8.00889 175.309 7.75556V5.43111H172.885V4.79556H176.044V7.98667Z" fill="black"/>
<path d="M183.143 4.81332H179.107V8.58221H183.777V9.21332H178.362V0.128876H183.742V0.768876H179.107V4.17776H183.143V4.81332Z" fill="black"/>
<path d="M191.976 9.20887H191.236L186.121 1.43999L186.085 1.44888V9.20887H185.345V0.128876H186.085L191.201 7.88443L191.236 7.87554V0.128876H191.976V9.20887Z" fill="black"/>
<path d="M200.4 0.768876H197.334V9.20887H196.598V0.768876H193.426V0.128876H200.4V0.768876Z" fill="black"/>
<path d="M131.167 22.3333C131.167 21.8667 130.982 21.48 130.616 21.1778C130.25 20.8756 129.629 20.5911 128.752 20.3244C127.788 20.0578 127.061 19.7289 126.558 19.3289C126.06 18.9333 125.805 18.3911 125.805 17.7111C125.805 17.0133 126.087 16.4444 126.646 16C127.206 15.5511 127.924 15.3289 128.792 15.3289C129.708 15.3289 130.444 15.5822 130.999 16.0889C131.555 16.5911 131.828 17.2356 131.81 18.0133L131.797 18.0489H131.105C131.105 17.4489 130.889 16.9511 130.457 16.56C130.026 16.1644 129.471 15.9689 128.792 15.9689C128.092 15.9689 127.541 16.1378 127.144 16.4711C126.748 16.8089 126.55 17.2178 126.55 17.7022C126.55 18.1644 126.73 18.5422 127.091 18.84C127.453 19.1378 128.092 19.4133 128.999 19.6756C129.951 19.9556 130.673 20.2978 131.171 20.7022C131.669 21.1111 131.92 21.6489 131.92 22.3244C131.92 23.0311 131.629 23.6 131.043 24.0311C130.462 24.4622 129.726 24.6756 128.841 24.6756C127.955 24.6756 127.184 24.4489 126.523 23.9911C125.862 23.5378 125.545 22.8711 125.567 22L125.58 21.9644H126.268C126.268 22.6667 126.527 23.1911 127.052 23.5333C127.576 23.8756 128.171 24.0489 128.845 24.0489C129.532 24.0489 130.096 23.8889 130.528 23.5733C130.951 23.2444 131.167 22.8356 131.167 22.3333Z" fill="black"/>
<path d="M138.511 20.1422H134.476V23.9067H139.141V24.5378H133.731V15.4578H139.11V16.0933H134.476V19.5067H138.511V20.1422Z" fill="black"/>
<path d="M141.436 20.4356V24.5378H140.696V15.4622H143.697C144.662 15.4622 145.397 15.6756 145.917 16.1022C146.433 16.5289 146.688 17.1511 146.688 17.9689C146.688 18.4533 146.552 18.8844 146.279 19.2622C146.005 19.6444 145.618 19.92 145.115 20.0978C145.67 20.24 146.071 20.4889 146.318 20.8578C146.565 21.2222 146.684 21.6756 146.684 22.2267V23.08C146.684 23.3644 146.719 23.6178 146.785 23.84C146.851 24.0622 146.957 24.2489 147.111 24.3867V24.5378H146.358C146.208 24.3867 146.098 24.1778 146.036 23.9067C145.974 23.6356 145.944 23.3556 145.944 23.0667V22.2356C145.944 21.68 145.767 21.24 145.411 20.9156C145.054 20.5911 144.556 20.4311 143.917 20.4311H141.436V20.4356ZM141.436 19.8H143.609C144.419 19.8 145.014 19.6356 145.389 19.3022C145.763 18.9733 145.948 18.5244 145.948 17.9644C145.948 17.3689 145.763 16.9067 145.389 16.5822C145.014 16.2578 144.45 16.0978 143.692 16.0978H141.432V19.8H141.436Z" fill="black"/>
<path d="M151.389 22.9467L151.57 23.5822H151.605L151.786 22.9467L154.491 15.4578H155.293L151.94 24.5378H151.235L147.887 15.4578H148.689L151.389 22.9467Z" fill="black"/>
<path d="M157.553 15.4578H156.813V24.5378H157.553V15.4578Z" fill="black"/>
<path d="M166.246 21.7022L166.259 21.7378C166.277 22.6267 165.986 23.3378 165.395 23.8711C164.801 24.4045 164.021 24.6667 163.056 24.6667C162.056 24.6667 161.245 24.3022 160.633 23.5733C160.016 22.8445 159.712 21.8978 159.712 20.7378V19.2578C159.712 18.1022 160.016 17.1556 160.633 16.4222C161.245 15.6889 162.056 15.32 163.056 15.32C164.03 15.32 164.814 15.5822 165.4 16.0978C165.99 16.6178 166.277 17.3333 166.259 18.2445L166.246 18.28H165.554C165.554 17.5467 165.334 16.9778 164.889 16.5689C164.444 16.16 163.836 15.9511 163.056 15.9511C162.267 15.9511 161.637 16.2578 161.161 16.8756C160.686 17.4933 160.448 18.28 160.448 19.24V20.7333C160.448 21.7067 160.686 22.4978 161.161 23.1111C161.637 23.7245 162.272 24.0311 163.056 24.0311C163.836 24.0311 164.444 23.8311 164.889 23.4311C165.334 23.0311 165.554 22.4533 165.554 21.6933H166.246V21.7022Z" fill="black"/>
<path d="M172.943 20.1422H168.907V23.9067H173.573V24.5378H168.163V15.4578H173.542V16.0933H168.907V19.5067H172.943V20.1422Z" fill="black"/>
<path d="M132.533 31.4222H129.466V39.8667H128.73V31.4222H125.558V30.7867H132.533V31.4222Z" fill="black"/>
<path d="M138.758 35.4711H134.722V39.2355H139.388V39.8667H133.978V30.7867H139.357V31.4222H134.722V34.8355H138.758V35.4711Z" fill="black"/>
<path d="M147.16 37.0311L147.173 37.0667C147.191 37.9555 146.9 38.6667 146.31 39.2C145.715 39.7333 144.939 39.9955 143.97 39.9955C142.97 39.9955 142.164 39.6311 141.547 38.9022C140.934 38.1733 140.626 37.2267 140.626 36.0711V34.5911C140.626 33.4355 140.934 32.4889 141.547 31.7555C142.164 31.0222 142.97 30.6533 143.97 30.6533C144.948 30.6533 145.728 30.9155 146.314 31.4311C146.904 31.9511 147.191 32.6667 147.173 33.5778L147.16 33.6133H146.468C146.468 32.88 146.248 32.3111 145.803 31.9022C145.358 31.4933 144.75 31.2889 143.97 31.2889C143.186 31.2889 142.551 31.5955 142.076 32.2133C141.6 32.8311 141.362 33.6178 141.362 34.5778V36.0711C141.362 37.0444 141.6 37.8355 142.076 38.4489C142.551 39.0622 143.186 39.3689 143.97 39.3689C144.75 39.3689 145.362 39.1689 145.803 38.7689C146.248 38.3689 146.468 37.7911 146.468 37.0311H147.16Z" fill="black"/>
<path d="M155.672 39.8667H154.932V35.6889H149.816V39.8667H149.076V30.7867H149.816V35.0533H154.932V30.7867H155.672V39.8667Z" fill="black"/>
<path d="M164.607 39.8667H163.862L158.752 32.0978L158.716 32.1022V39.8667H157.972V30.7867H158.716L163.827 38.5378L163.862 38.5333V30.7867H164.607V39.8667Z" fill="black"/>
<path d="M173.507 36.0667C173.507 37.2356 173.19 38.1867 172.551 38.9111C171.916 39.6356 171.061 39.9956 169.991 39.9956C168.933 39.9956 168.092 39.6356 167.466 38.9111C166.836 38.1867 166.523 37.24 166.523 36.0667V34.5867C166.523 33.4178 166.836 32.4711 167.466 31.7422C168.092 31.0133 168.933 30.6489 169.986 30.6489C171.057 30.6489 171.912 31.0133 172.551 31.7422C173.19 32.4711 173.507 33.4178 173.507 34.5867V36.0667ZM172.775 34.5778C172.775 33.5956 172.529 32.8045 172.035 32.2045C171.542 31.6089 170.859 31.3067 169.986 31.3067C169.127 31.3067 168.462 31.6045 167.982 32.2045C167.506 32.8045 167.264 33.5911 167.264 34.5778V36.0667C167.264 37.0578 167.506 37.8489 167.986 38.4489C168.466 39.0445 169.136 39.3467 169.991 39.3467C170.868 39.3467 171.551 39.0489 172.04 38.4533C172.529 37.8578 172.775 37.0622 172.775 36.0667V34.5778Z" fill="black"/>
<path d="M176.168 39.2355H180.816V39.8667H175.428V30.7867H176.168V39.2355Z" fill="black"/>
<path d="M189.002 36.0667C189.002 37.2356 188.685 38.1867 188.046 38.9111C187.412 39.6356 186.557 39.9956 185.486 39.9956C184.429 39.9956 183.588 39.6356 182.962 38.9111C182.332 38.1867 182.019 37.24 182.019 36.0667V34.5867C182.019 33.4178 182.332 32.4711 182.962 31.7422C183.588 31.0133 184.429 30.6489 185.486 30.6489C186.557 30.6489 187.412 31.0133 188.051 31.7422C188.69 32.4711 189.007 33.4178 189.007 34.5867V36.0667H189.002ZM188.271 34.5778C188.271 33.5956 188.024 32.8045 187.531 32.2045C187.037 31.6089 186.354 31.3067 185.482 31.3067C184.623 31.3067 183.958 31.6045 183.477 32.2045C182.997 32.8045 182.759 33.5911 182.759 34.5778V36.0667C182.759 37.0578 183.002 37.8489 183.482 38.4489C183.962 39.0445 184.632 39.3467 185.486 39.3467C186.363 39.3467 187.046 39.0489 187.535 38.4533C188.024 37.8578 188.271 37.0622 188.271 36.0667V34.5778Z" fill="black"/>
<path d="M197.32 38.6444C197.122 38.9733 196.756 39.28 196.223 39.5689C195.69 39.8533 195.016 40 194.205 40C193.17 40 192.324 39.64 191.663 38.92C191.002 38.2 190.672 37.2711 190.672 36.1244V34.4622C190.672 33.3378 190.994 32.4267 191.632 31.7156C192.271 31.0089 193.095 30.6578 194.113 30.6578C195.091 30.6578 195.866 30.92 196.439 31.4356C197.016 31.9556 197.294 32.6178 197.276 33.4178L197.259 33.4533H196.58C196.58 32.8267 196.364 32.3067 195.937 31.8978C195.51 31.4933 194.901 31.2889 194.113 31.2889C193.307 31.2889 192.655 31.5822 192.157 32.1733C191.663 32.7644 191.416 33.52 191.416 34.4444V36.12C191.416 37.0711 191.676 37.8444 192.192 38.4533C192.707 39.0622 193.377 39.3644 194.205 39.3644C194.835 39.3644 195.351 39.2711 195.752 39.08C196.153 38.8889 196.43 38.6667 196.589 38.4133V36.0889H194.166V35.4533H197.325V38.6444H197.32Z" fill="black"/>
<path d="M202.352 35.8311L205.141 30.7867H206L202.718 36.5467V39.8667H201.982V36.5155L198.722 30.7867H199.581L202.352 35.8311Z" fill="black"/>
<path d="M7.47673 0.395569H0V39.6089H7.47673V0.395569Z" fill="black"/>
<path d="M97.7172 0.395569H87.6014H80.1246H70.0044V7.93779H80.1246V39.6045H87.6014V7.93779H97.7172V0.395569Z" fill="black"/>
<path d="M48.1253 29.0667C48.1253 27.56 47.7552 26.3822 47.0062 25.5422C46.2616 24.6978 44.8693 23.8489 42.8338 22.9956C38.9831 21.6533 36.1105 20.1022 34.2116 18.3378C32.3127 16.5778 31.3654 14.1156 31.3654 10.9556C31.3654 7.81778 32.436 5.27111 34.5773 3.32C36.7185 1.36889 39.5339 0.391113 43.0277 0.391113C46.755 0.391113 49.6982 1.43111 51.857 3.51111C54.0159 5.59111 55.0601 8.4 54.9896 11.9422L54.9323 12.1022H47.6979C47.6979 10.1067 47.3058 8.60445 46.5259 7.59556C45.7417 6.58667 44.5433 6.08445 42.922 6.08445C41.5209 6.08445 40.4899 6.53778 39.8335 7.44889C39.1726 8.35556 38.8465 9.53778 38.8465 10.9867C38.8465 12.3333 39.2431 13.4222 40.0361 14.2533C40.8292 15.0889 42.2787 15.9778 44.3803 16.92C48.1032 18.1556 50.9009 19.6844 52.7602 21.5067C54.6239 23.3289 55.5535 25.8311 55.5535 29.0089C55.5535 32.2978 54.4609 34.88 52.2756 36.7689C50.0903 38.6578 47.1516 39.6 43.4639 39.6C39.829 39.6 36.7405 38.5956 34.2072 36.5911C31.6694 34.5867 30.4446 31.52 30.5371 27.4L30.59 27.2356H37.8244C37.8244 29.6133 38.2914 31.3244 39.2298 32.3689C40.1639 33.4133 41.5782 33.9333 43.4683 33.9333C45.0676 33.9333 46.2484 33.4889 47.0062 32.6C47.7508 31.72 48.1253 30.5378 48.1253 29.0667Z" fill="black"/>
<path d="M112.107 0.395569H111.279V39.6089H112.107V0.395569Z" fill="black"/>
</svg>
