<svg width="86" height="78" viewBox="0 0 86 78" fill="none" xmlns="http://www.w3.org/2000/svg">
<path d="M37.2641 37.5666H28.6641V43.2999V57.6333H31.5307V49.0333H37.2641C40.4173 49.0333 42.9974 46.4532 42.9974 43.2999C42.9974 40.1467 40.4173 37.5666 37.2641 37.5666ZM37.2641 46.1667H31.5307V40.4334H37.2641C38.9841 40.4334 40.1307 41.5801 40.1307 43.3001C40.1307 45.0201 38.9841 46.1667 37.2641 46.1667Z" fill="white"/>
<path d="M54.4672 37.5666H45.8672V57.6333H54.4672C57.6204 57.6333 60.2005 55.0532 60.2005 51.8999V43.2999C60.2005 40.1467 57.6204 37.5666 54.4672 37.5666ZM57.3339 51.9001C57.3339 53.6201 56.1872 54.7667 54.4672 54.7667H48.7339V40.4334H54.4672C56.1872 40.4334 57.3339 41.5801 57.3339 43.3001V51.9001Z" fill="white"/>
<path d="M77.4 28.9667H54.4667V20.3667L37.2667 0.300079H5.73333C2.57993 0.300079 0 2.88 0 6.03341V71.9667C0 75.12 2.57993 77.7001 5.73333 77.7001H48.7333C51.8866 77.7001 54.4667 75.12 54.4667 71.9667V66.2334H77.4C82.2734 66.2334 86 62.5068 86 57.6334V37.5666C86 32.6933 82.2734 28.9667 77.4 28.9667ZM37.2667 4.6L50.7401 20.3667H40.1333C38.7001 20.3667 37.2667 18.9335 37.2667 17.5001V4.6ZM51.6 71.9666C51.6 73.3999 50.4533 74.8333 48.7333 74.8333H5.73333C4.30007 74.8333 2.86667 73.6866 2.86667 71.9666V6.03341C2.86667 4.60015 4.01333 3.16675 5.73333 3.16675H34.4V17.5001C34.4 20.6535 36.9799 23.2334 40.1333 23.2334H51.6V28.9667H28.6667C23.7933 28.9667 20.0667 32.6933 20.0667 37.5667V57.6334C20.0667 62.5068 23.7933 66.2334 28.6667 66.2334H51.6V71.9666ZM83.1333 57.6334C83.1333 60.7867 80.5533 63.3667 77.4 63.3667H28.6667C25.5133 63.3667 22.9333 60.7867 22.9333 57.6334V37.5666C22.9333 34.4132 25.5133 31.8333 28.6667 31.8333H77.4C80.5533 31.8333 83.1333 34.4132 83.1333 37.5666V57.6334Z" fill="#F1551C"/>
<path d="M63.0703 57.6334H65.937V49.0333H74.537V46.1667H65.937V40.4334H77.4036V37.5666H63.0703V57.6334Z" fill="white"/>
</svg>
