<svg viewBox="0 0 6 7" fill="none" xmlns="http://www.w3.org/2000/svg">
<path d="M5.88337 5.1875C5.86491 5.2195 5.84033 5.24755 5.81103 5.27004C5.78173 5.29254 5.74829 5.30904 5.71261 5.3186C5.67693 5.32816 5.63971 5.33059 5.60309 5.32576C5.56647 5.32093 5.53115 5.30893 5.49917 5.29045L3.24177 3.98714V6.59375C3.24177 6.66834 3.21214 6.73988 3.1594 6.79262C3.10665 6.84537 3.03512 6.875 2.96052 6.875C2.88593 6.875 2.81439 6.84537 2.76165 6.79262C2.70891 6.73988 2.67927 6.66834 2.67927 6.59375V3.98714L0.421876 5.29045C0.389889 5.30891 0.354579 5.3209 0.317961 5.32572C0.281342 5.33054 0.244133 5.3281 0.208457 5.31854C0.172781 5.30898 0.139338 5.29249 0.110036 5.27001C0.0807338 5.24752 0.0561474 5.21949 0.0376802 5.1875C0.0192131 5.15551 0.00722698 5.1202 0.00240612 5.08359C-0.00241474 5.04697 2.40917e-05 5.00976 0.00958344 4.97408C0.0191428 4.93841 0.0356355 4.90496 0.0581198 4.87566C0.080604 4.84636 0.108639 4.82177 0.140626 4.8033L2.39802 3.5L0.140626 2.1967C0.0760267 2.1594 0.0288894 2.09797 0.00958344 2.02592C2.40927e-05 1.99024 -0.00241474 1.95303 0.00240612 1.91641C0.00722698 1.8798 0.0192131 1.84449 0.0376802 1.8125C0.0561474 1.78051 0.0807338 1.75248 0.110036 1.72999C0.139338 1.70751 0.172781 1.69102 0.208457 1.68146C0.280508 1.66215 0.357277 1.67226 0.421876 1.70955L2.67927 3.01286V0.40625C2.67927 0.331658 2.70891 0.260121 2.76165 0.207376C2.81439 0.154632 2.88593 0.125 2.96052 0.125C3.03512 0.125 3.10665 0.154632 3.1594 0.207376C3.21214 0.260121 3.24177 0.331658 3.24177 0.40625V3.01286L5.49917 1.70955C5.56377 1.67226 5.64054 1.66215 5.71259 1.68146C5.78464 1.70076 5.84607 1.7479 5.88337 1.8125C5.92066 1.8771 5.93077 1.95387 5.91146 2.02592C5.89216 2.09797 5.84502 2.1594 5.78042 2.1967L3.52303 3.5L5.78042 4.8033C5.84502 4.8406 5.89215 4.90203 5.91146 4.97408C5.93077 5.04613 5.92066 5.1229 5.88337 5.1875Z" fill="#FF0000"/>
</svg>
