<svg viewBox="0 0 40 40" fill="none" xmlns="http://www.w3.org/2000/svg">
<g clip-path="url(#clip0_1656_2619)">
<path d="M27.4255 0H12.4471C5.55495 0 0 5.57961 0 12.4695V27.444C0 34.3344 5.55495 40 12.4471 40H27.4255C34.3178 40 40 34.3344 40 27.444V12.4695C40 5.57961 34.3178 0 27.4255 0ZM36.2313 27.444C36.2313 32.2602 32.2431 36.2151 27.4255 36.2151H12.4471C7.62921 36.2151 3.68308 32.2602 3.68308 27.444V12.4695C3.68308 7.65359 7.62921 3.69892 12.4471 3.69892H27.4255C32.2431 3.69892 36.2313 7.65359 36.2313 12.4695V27.444Z" fill="white"/>
<path d="M20 11C15.0298 11 11 15.0297 11 20.0004C11 24.9704 15.0298 29 20 29C24.9704 29 29 24.9704 29 20.0004C29 15.0297 24.9704 11 20 11ZM20 25.6252C16.8994 25.6252 14.3753 23.1008 14.3753 20.0004C14.3753 16.897 16.8994 14.3752 20 14.3752C23.1005 14.3752 25.6249 16.8971 25.6249 20.0004C25.6249 23.1008 23.1005 25.6252 20 25.6252Z" fill="white"/>
<path d="M30.0002 9C29.4478 9 29 9.44772 29 9.99987C29 10.5521 29.4478 11 30.0002 11C30.552 11 31 10.5521 31 9.99987C31 9.44772 30.552 9 30.0002 9Z" fill="white"/>
</g>
<defs>
<clipPath id="clip0_1656_2619">
<rect width="40" height="40" fill="white"/>
</clipPath>
</defs>
</svg>
